{
	"asset":{
		"generator":"Khronos glTF Blender I/O v4.2.57",
		"version":"2.0"
	},
	"scene":0,
	"scenes":[
		{
			"name":"Scene",
			"nodes":[
				0,
				1,
				2,
				3,
				4,
				5,
				6,
				7,
				8,
				9,
				10,
				11,
				12
			]
		}
	],
	"nodes":[
		{
			"mesh":0,
			"name":"Cube.003",
			"scale":[
				0.38287144899368286,
				0.38287144899368286,
				0.38287144899368286
			],
			"translation":[
				0.03421640396118164,
				2.164433479309082,
				-0.05955325439572334
			]
		},
		{
			"mesh":1,
			"name":"Torus.001",
			"scale":[
				0.9137380719184875,
				0.5273151397705078,
				0.9137380719184875
			],
			"translation":[
				0.25826090574264526,
				3.8390121459960938,
				-0.04158531129360199
			]
		},
		{
			"mesh":2,
			"name":"Sphere",
			"rotation":[
				0,
				0,
				0.7112955451011658,
				0.7028931379318237
			],
			"scale":[
				0.2436741590499878,
				0.2436741590499878,
				0.2436741590499878
			],
			"translation":[
				0.6802279949188232,
				3.4003758430480957,
				-0.4288039803504944
			]
		},
		{
			"mesh":3,
			"name":"Cube",
			"translation":[
				0.390502393245697,
				1.2177703380584717,
				0.024024387821555138
			]
		},
		{
			"mesh":4,
			"name":"Cube.002",
			"scale":[
				0.19331413507461548,
				0.19331413507461548,
				0.19331413507461548
			],
			"translation":[
				0.14621031284332275,
				2.4859468936920166,
				-0.6731809973716736
			]
		},
		{
			"mesh":5,
			"name":"Cube.001",
			"scale":[
				0.19628334045410156,
				0.19628334045410156,
				0.19628334045410156
			],
			"translation":[
				-0.09132795035839081,
				1.6648609638214111,
				-1.046536922454834
			]
		},
		{
			"mesh":6,
			"name":"Cube.004",
			"scale":[
				0.232102632522583,
				0.232102632522583,
				0.232102632522583
			],
			"translation":[
				0.06832423061132431,
				0.2663678526878357,
				-0.200264111161232
			]
		},
		{
			"mesh":7,
			"name":"Cube.005",
			"scale":[
				0.38287144899368286,
				0.38287144899368286,
				0.38287144899368286
			],
			"translation":[
				0.03421640396118164,
				2.164433479309082,
				-0.05955325439572334
			]
		},
		{
			"mesh":8,
			"name":"Sphere.001",
			"rotation":[
				0,
				0,
				0.7112955451011658,
				0.7028931379318237
			],
			"scale":[
				0.14991554617881775,
				0.14991554617881775,
				0.14991553127765656
			],
			"translation":[
				0.7851700782775879,
				3.4003758430480957,
				-0.4255911409854889
			]
		},
		{
			"mesh":9,
			"name":"Cube.006",
			"scale":[
				0.012030836194753647,
				0.012030836194753647,
				0.012030836194753647
			],
			"translation":[
				0.8684270977973938,
				3.4516754150390625,
				0.4656156897544861
			]
		},
		{
			"mesh":10,
			"name":"Cube.007",
			"scale":[
				0.012030836194753647,
				0.012030836194753647,
				0.012030836194753647
			],
			"translation":[
				0.8631641268730164,
				3.4180521965026855,
				0.4805128574371338
			]
		},
		{
			"mesh":11,
			"name":"Cube.008",
			"rotation":[
				-0.9042698740959167,
				0,
				0,
				0.42696160078048706
			],
			"scale":[
				0.012030836194753647,
				0.012030836194753647,
				0.012030836194753647
			],
			"translation":[
				0.8468797206878662,
				3.4639906883239746,
				-0.576321542263031
			]
		},
		{
			"mesh":12,
			"name":"Cube.009",
			"rotation":[
				-0.9042698740959167,
				0,
				0,
				0.42696160078048706
			],
			"scale":[
				0.012030836194753647,
				0.012030836194753647,
				0.012030836194753647
			],
			"translation":[
				0.834359884262085,
				3.431727886199951,
				-0.5905029773712158
			]
		}
	],
	"materials":[
		{
			"doubleSided":true,
			"name":"Material",
			"pbrMetallicRoughness":{
				"baseColorFactor":[
					0.800000011920929,
					0.800000011920929,
					0.800000011920929,
					1
				],
				"metallicFactor":0,
				"roughnessFactor":0.5
			}
		}
	],
	"meshes":[
		{
			"name":"Cube.004",
			"primitives":[
				{
					"attributes":{
						"POSITION":0,
						"NORMAL":1,
						"TEXCOORD_0":2,
						"COLOR_0":3,
						"COLOR_1":4
					},
					"indices":5,
					"material":0
				}
			]
		},
		{
			"name":"Torus.003",
			"primitives":[
				{
					"attributes":{
						"POSITION":6,
						"NORMAL":7,
						"TEXCOORD_0":8,
						"COLOR_0":9
					},
					"indices":10
				}
			]
		},
		{
			"name":"Sphere",
			"primitives":[
				{
					"attributes":{
						"POSITION":11,
						"NORMAL":12,
						"TEXCOORD_0":13,
						"COLOR_0":14
					},
					"indices":15
				}
			]
		},
		{
			"name":"Cube.001",
			"primitives":[
				{
					"attributes":{
						"POSITION":16,
						"NORMAL":17,
						"TEXCOORD_0":18
					},
					"indices":19
				}
			]
		},
		{
			"name":"Cube",
			"primitives":[
				{
					"attributes":{
						"POSITION":20,
						"NORMAL":21,
						"TEXCOORD_0":22
					},
					"indices":23
				}
			]
		},
		{
			"name":"Cube.003",
			"primitives":[
				{
					"attributes":{
						"POSITION":24,
						"NORMAL":25,
						"TEXCOORD_0":26,
						"COLOR_0":27
					},
					"indices":28
				}
			]
		},
		{
			"name":"Cube.005",
			"primitives":[
				{
					"attributes":{
						"POSITION":29,
						"NORMAL":30,
						"TEXCOORD_0":31,
						"COLOR_0":32
					},
					"indices":33
				}
			]
		},
		{
			"name":"Cube.006",
			"primitives":[
				{
					"attributes":{
						"POSITION":34,
						"NORMAL":35,
						"TEXCOORD_0":36,
						"COLOR_0":37,
						"COLOR_1":38
					},
					"indices":39,
					"material":0
				}
			]
		},
		{
			"name":"Sphere.001",
			"primitives":[
				{
					"attributes":{
						"POSITION":40,
						"NORMAL":41,
						"TEXCOORD_0":42,
						"COLOR_0":43
					},
					"indices":44
				}
			]
		},
		{
			"name":"Cube.002",
			"primitives":[
				{
					"attributes":{
						"POSITION":45,
						"NORMAL":46,
						"TEXCOORD_0":47,
						"COLOR_0":48
					},
					"indices":49
				}
			]
		},
		{
			"name":"Cube.007",
			"primitives":[
				{
					"attributes":{
						"POSITION":50,
						"NORMAL":51,
						"TEXCOORD_0":52,
						"COLOR_0":53
					},
					"indices":54
				}
			]
		},
		{
			"name":"Cube.008",
			"primitives":[
				{
					"attributes":{
						"POSITION":55,
						"NORMAL":56,
						"TEXCOORD_0":57,
						"COLOR_0":58
					},
					"indices":49
				}
			]
		},
		{
			"name":"Cube.009",
			"primitives":[
				{
					"attributes":{
						"POSITION":59,
						"NORMAL":60,
						"TEXCOORD_0":61,
						"COLOR_0":62
					},
					"indices":54
				}
			]
		}
	],
	"accessors":[
		{
			"bufferView":0,
			"componentType":5126,
			"count":52955,
			"max":[
				3.0014564990997314,
				6.056987762451172,
				2.3097846508026123
			],
			"min":[
				-1.4778497219085693,
				1.0100823640823364,
				-2.3097846508026123
			],
			"type":"VEC3"
		},
		{
			"bufferView":1,
			"componentType":5126,
			"count":52955,
			"type":"VEC3"
		},
		{
			"bufferView":2,
			"componentType":5126,
			"count":52955,
			"type":"VEC2"
		},
		{
			"bufferView":3,
			"componentType":5121,
			"count":52955,
			"normalized":true,
			"type":"VEC4"
		},
		{
			"bufferView":4,
			"componentType":5126,
			"count":52955,
			"type":"VEC3"
		},
		{
			"bufferView":5,
			"componentType":5123,
			"count":72831,
			"type":"SCALAR"
		},
		{
			"bufferView":6,
			"componentType":5126,
			"count":1332,
			"max":[
				1.125,
				1.6167166233062744,
				1.125
			],
			"min":[
				-1.1367679834365845,
				-0.4850901961326599,
				-1.125
			],
			"type":"VEC3"
		},
		{
			"bufferView":7,
			"componentType":5126,
			"count":1332,
			"type":"VEC3"
		},
		{
			"bufferView":8,
			"componentType":5126,
			"count":1332,
			"type":"VEC2"
		},
		{
			"bufferView":9,
			"componentType":5123,
			"count":1332,
			"normalized":true,
			"type":"VEC4"
		},
		{
			"bufferView":10,
			"componentType":5123,
			"count":1872,
			"type":"SCALAR"
		},
		{
			"bufferView":11,
			"componentType":5126,
			"count":3968,
			"max":[
				0.9999997019767761,
				1,
				4.0306925773620605
			],
			"min":[
				-0.9999995231628418,
				-1.000000238418579,
				-1
			],
			"type":"VEC3"
		},
		{
			"bufferView":12,
			"componentType":5126,
			"count":3968,
			"type":"VEC3"
		},
		{
			"bufferView":13,
			"componentType":5126,
			"count":3968,
			"type":"VEC2"
		},
		{
			"bufferView":14,
			"componentType":5123,
			"count":3968,
			"normalized":true,
			"type":"VEC4"
		},
		{
			"bufferView":15,
			"componentType":5123,
			"count":5760,
			"type":"SCALAR"
		},
		{
			"bufferView":16,
			"componentType":5126,
			"count":2000,
			"max":[
				0.5256316661834717,
				1.5801639556884766,
				1.0357375144958496
			],
			"min":[
				-1.0393863916397095,
				-0.7572651505470276,
				-1.0355632305145264
			],
			"type":"VEC3"
		},
		{
			"bufferView":17,
			"componentType":5126,
			"count":2000,
			"type":"VEC3"
		},
		{
			"bufferView":18,
			"componentType":5126,
			"count":2000,
			"type":"VEC2"
		},
		{
			"bufferView":19,
			"componentType":5123,
			"count":2148,
			"type":"SCALAR"
		},
		{
			"bufferView":20,
			"componentType":5126,
			"count":320,
			"max":[
				1.2416465282440186,
				1.0676605701446533,
				9.565534591674805
			],
			"min":[
				-2.2759857177734375,
				-4.912815570831299,
				-2.352348804473877
			],
			"type":"VEC3"
		},
		{
			"bufferView":21,
			"componentType":5126,
			"count":320,
			"type":"VEC3"
		},
		{
			"bufferView":22,
			"componentType":5126,
			"count":320,
			"type":"VEC2"
		},
		{
			"bufferView":23,
			"componentType":5123,
			"count":480,
			"type":"SCALAR"
		},
		{
			"bufferView":24,
			"componentType":5126,
			"count":88,
			"max":[
				1.5715168714523315,
				0.646129310131073,
				10.887845993041992
			],
			"min":[
				-0.9853610396385193,
				-2.7235279083251953,
				0.020478757098317146
			],
			"type":"VEC3"
		},
		{
			"bufferView":25,
			"componentType":5126,
			"count":88,
			"type":"VEC3"
		},
		{
			"bufferView":26,
			"componentType":5126,
			"count":88,
			"type":"VEC2"
		},
		{
			"bufferView":27,
			"componentType":5123,
			"count":88,
			"normalized":true,
			"type":"VEC4"
		},
		{
			"bufferView":28,
			"componentType":5123,
			"count":108,
			"type":"SCALAR"
		},
		{
			"bufferView":29,
			"componentType":5126,
			"count":576,
			"max":[
				2.6229922771453857,
				1.5939207077026367,
				2.9006924629211426
			],
			"min":[
				-0.9120970368385315,
				-1.0559000968933105,
				-0.9680258631706238
			],
			"type":"VEC3"
		},
		{
			"bufferView":30,
			"componentType":5126,
			"count":576,
			"type":"VEC3"
		},
		{
			"bufferView":31,
			"componentType":5126,
			"count":576,
			"type":"VEC2"
		},
		{
			"bufferView":32,
			"componentType":5123,
			"count":576,
			"normalized":true,
			"type":"VEC4"
		},
		{
			"bufferView":33,
			"componentType":5123,
			"count":864,
			"type":"SCALAR"
		},
		{
			"bufferView":34,
			"componentType":5126,
			"count":11380,
			"max":[
				2.6566951274871826,
				6.058412551879883,
				2.367623805999756
			],
			"min":[
				-1.709962010383606,
				1.2624268531799316,
				-2.330275297164917
			],
			"type":"VEC3"
		},
		{
			"bufferView":35,
			"componentType":5126,
			"count":11380,
			"type":"VEC3"
		},
		{
			"bufferView":36,
			"componentType":5126,
			"count":11380,
			"type":"VEC2"
		},
		{
			"bufferView":37,
			"componentType":5121,
			"count":11380,
			"normalized":true,
			"type":"VEC4"
		},
		{
			"bufferView":38,
			"componentType":5126,
			"count":11380,
			"type":"VEC3"
		},
		{
			"bufferView":39,
			"componentType":5123,
			"count":26670,
			"type":"SCALAR"
		},
		{
			"bufferView":40,
			"componentType":5126,
			"count":101562,
			"max":[
				0.9872497320175171,
				0.9975767135620117,
				5.870460033416748
			],
			"min":[
				-0.9872297048568726,
				-0.9975767135620117,
				-0.9872012734413147
			],
			"type":"VEC3"
		},
		{
			"bufferView":41,
			"componentType":5126,
			"count":101562,
			"type":"VEC3"
		},
		{
			"bufferView":42,
			"componentType":5126,
			"count":101562,
			"type":"VEC2"
		},
		{
			"bufferView":43,
			"componentType":5123,
			"count":101562,
			"normalized":true,
			"type":"VEC4"
		},
		{
			"bufferView":44,
			"componentType":5125,
			"count":114276,
			"type":"SCALAR"
		},
		{
			"bufferView":45,
			"componentType":5126,
			"count":56,
			"max":[
				7.171056270599365,
				3.172483205795288,
				4.989846229553223
			],
			"min":[
				-1,
				-1,
				-2.015124797821045
			],
			"type":"VEC3"
		},
		{
			"bufferView":46,
			"componentType":5126,
			"count":56,
			"type":"VEC3"
		},
		{
			"bufferView":47,
			"componentType":5126,
			"count":56,
			"type":"VEC2"
		},
		{
			"bufferView":48,
			"componentType":5123,
			"count":56,
			"normalized":true,
			"type":"VEC4"
		},
		{
			"bufferView":49,
			"componentType":5123,
			"count":84,
			"type":"SCALAR"
		},
		{
			"bufferView":50,
			"componentType":5126,
			"count":72,
			"max":[
				7.982517719268799,
				3.9962241649627686,
				6.5171074867248535
			],
			"min":[
				-1,
				-1,
				-2.015124797821045
			],
			"type":"VEC3"
		},
		{
			"bufferView":51,
			"componentType":5126,
			"count":72,
			"type":"VEC3"
		},
		{
			"bufferView":52,
			"componentType":5126,
			"count":72,
			"type":"VEC2"
		},
		{
			"bufferView":53,
			"componentType":5123,
			"count":72,
			"normalized":true,
			"type":"VEC4"
		},
		{
			"bufferView":54,
			"componentType":5123,
			"count":108,
			"type":"SCALAR"
		},
		{
			"bufferView":55,
			"componentType":5126,
			"count":56,
			"max":[
				7.171056270599365,
				3.172483205795288,
				4.989846229553223
			],
			"min":[
				-1,
				-1,
				-2.015124797821045
			],
			"type":"VEC3"
		},
		{
			"bufferView":56,
			"componentType":5126,
			"count":56,
			"type":"VEC3"
		},
		{
			"bufferView":57,
			"componentType":5126,
			"count":56,
			"type":"VEC2"
		},
		{
			"bufferView":58,
			"componentType":5123,
			"count":56,
			"normalized":true,
			"type":"VEC4"
		},
		{
			"bufferView":59,
			"componentType":5126,
			"count":72,
			"max":[
				7.982517719268799,
				3.9962241649627686,
				6.5171074867248535
			],
			"min":[
				-1,
				-1,
				-2.015124797821045
			],
			"type":"VEC3"
		},
		{
			"bufferView":60,
			"componentType":5126,
			"count":72,
			"type":"VEC3"
		},
		{
			"bufferView":61,
			"componentType":5126,
			"count":72,
			"type":"VEC2"
		},
		{
			"bufferView":62,
			"componentType":5123,
			"count":72,
			"normalized":true,
			"type":"VEC4"
		}
	],
	"bufferViews":[
		{
			"buffer":0,
			"byteLength":635460,
			"byteOffset":0,
			"target":34962
		},
		{
			"buffer":0,
			"byteLength":635460,
			"byteOffset":635460,
			"target":34962
		},
		{
			"buffer":0,
			"byteLength":423640,
			"byteOffset":1270920,
			"target":34962
		},
		{
			"buffer":0,
			"byteLength":211820,
			"byteOffset":1694560,
			"target":34962
		},
		{
			"buffer":0,
			"byteLength":635460,
			"byteOffset":1906380,
			"target":34962
		},
		{
			"buffer":0,
			"byteLength":145662,
			"byteOffset":2541840,
			"target":34963
		},
		{
			"buffer":0,
			"byteLength":15984,
			"byteOffset":2687504,
			"target":34962
		},
		{
			"buffer":0,
			"byteLength":15984,
			"byteOffset":2703488,
			"target":34962
		},
		{
			"buffer":0,
			"byteLength":10656,
			"byteOffset":2719472,
			"target":34962
		},
		{
			"buffer":0,
			"byteLength":10656,
			"byteOffset":2730128,
			"target":34962
		},
		{
			"buffer":0,
			"byteLength":3744,
			"byteOffset":2740784,
			"target":34963
		},
		{
			"buffer":0,
			"byteLength":47616,
			"byteOffset":2744528,
			"target":34962
		},
		{
			"buffer":0,
			"byteLength":47616,
			"byteOffset":2792144,
			"target":34962
		},
		{
			"buffer":0,
			"byteLength":31744,
			"byteOffset":2839760,
			"target":34962
		},
		{
			"buffer":0,
			"byteLength":31744,
			"byteOffset":2871504,
			"target":34962
		},
		{
			"buffer":0,
			"byteLength":11520,
			"byteOffset":2903248,
			"target":34963
		},
		{
			"buffer":0,
			"byteLength":24000,
			"byteOffset":2914768,
			"target":34962
		},
		{
			"buffer":0,
			"byteLength":24000,
			"byteOffset":2938768,
			"target":34962
		},
		{
			"buffer":0,
			"byteLength":16000,
			"byteOffset":2962768,
			"target":34962
		},
		{
			"buffer":0,
			"byteLength":4296,
			"byteOffset":2978768,
			"target":34963
		},
		{
			"buffer":0,
			"byteLength":3840,
			"byteOffset":2983064,
			"target":34962
		},
		{
			"buffer":0,
			"byteLength":3840,
			"byteOffset":2986904,
			"target":34962
		},
		{
			"buffer":0,
			"byteLength":2560,
			"byteOffset":2990744,
			"target":34962
		},
		{
			"buffer":0,
			"byteLength":960,
			"byteOffset":2993304,
			"target":34963
		},
		{
			"buffer":0,
			"byteLength":1056,
			"byteOffset":2994264,
			"target":34962
		},
		{
			"buffer":0,
			"byteLength":1056,
			"byteOffset":2995320,
			"target":34962
		},
		{
			"buffer":0,
			"byteLength":704,
			"byteOffset":2996376,
			"target":34962
		},
		{
			"buffer":0,
			"byteLength":704,
			"byteOffset":2997080,
			"target":34962
		},
		{
			"buffer":0,
			"byteLength":216,
			"byteOffset":2997784,
			"target":34963
		},
		{
			"buffer":0,
			"byteLength":6912,
			"byteOffset":2998000,
			"target":34962
		},
		{
			"buffer":0,
			"byteLength":6912,
			"byteOffset":3004912,
			"target":34962
		},
		{
			"buffer":0,
			"byteLength":4608,
			"byteOffset":3011824,
			"target":34962
		},
		{
			"buffer":0,
			"byteLength":4608,
			"byteOffset":3016432,
			"target":34962
		},
		{
			"buffer":0,
			"byteLength":1728,
			"byteOffset":3021040,
			"target":34963
		},
		{
			"buffer":0,
			"byteLength":136560,
			"byteOffset":3022768,
			"target":34962
		},
		{
			"buffer":0,
			"byteLength":136560,
			"byteOffset":3159328,
			"target":34962
		},
		{
			"buffer":0,
			"byteLength":91040,
			"byteOffset":3295888,
			"target":34962
		},
		{
			"buffer":0,
			"byteLength":45520,
			"byteOffset":3386928,
			"target":34962
		},
		{
			"buffer":0,
			"byteLength":136560,
			"byteOffset":3432448,
			"target":34962
		},
		{
			"buffer":0,
			"byteLength":53340,
			"byteOffset":3569008,
			"target":34963
		},
		{
			"buffer":0,
			"byteLength":1218744,
			"byteOffset":3622348,
			"target":34962
		},
		{
			"buffer":0,
			"byteLength":1218744,
			"byteOffset":4841092,
			"target":34962
		},
		{
			"buffer":0,
			"byteLength":812496,
			"byteOffset":6059836,
			"target":34962
		},
		{
			"buffer":0,
			"byteLength":812496,
			"byteOffset":6872332,
			"target":34962
		},
		{
			"buffer":0,
			"byteLength":457104,
			"byteOffset":7684828,
			"target":34963
		},
		{
			"buffer":0,
			"byteLength":672,
			"byteOffset":8141932,
			"target":34962
		},
		{
			"buffer":0,
			"byteLength":672,
			"byteOffset":8142604,
			"target":34962
		},
		{
			"buffer":0,
			"byteLength":448,
			"byteOffset":8143276,
			"target":34962
		},
		{
			"buffer":0,
			"byteLength":448,
			"byteOffset":8143724,
			"target":34962
		},
		{
			"buffer":0,
			"byteLength":168,
			"byteOffset":8144172,
			"target":34963
		},
		{
			"buffer":0,
			"byteLength":864,
			"byteOffset":8144340,
			"target":34962
		},
		{
			"buffer":0,
			"byteLength":864,
			"byteOffset":8145204,
			"target":34962
		},
		{
			"buffer":0,
			"byteLength":576,
			"byteOffset":8146068,
			"target":34962
		},
		{
			"buffer":0,
			"byteLength":576,
			"byteOffset":8146644,
			"target":34962
		},
		{
			"buffer":0,
			"byteLength":216,
			"byteOffset":8147220,
			"target":34963
		},
		{
			"buffer":0,
			"byteLength":672,
			"byteOffset":8147436,
			"target":34962
		},
		{
			"buffer":0,
			"byteLength":672,
			"byteOffset":8148108,
			"target":34962
		},
		{
			"buffer":0,
			"byteLength":448,
			"byteOffset":8148780,
			"target":34962
		},
		{
			"buffer":0,
			"byteLength":448,
			"byteOffset":8149228,
			"target":34962
		},
		{
			"buffer":0,
			"byteLength":864,
			"byteOffset":8149676,
			"target":34962
		},
		{
			"buffer":0,
			"byteLength":864,
			"byteOffset":8150540,
			"target":34962
		},
		{
			"buffer":0,
			"byteLength":576,
			"byteOffset":8151404,
			"target":34962
		},
		{
			"buffer":0,
			"byteLength":576,
			"byteOffset":8151980,
			"target":34962
		}
	],
	"buffers":[
		{
			"byteLength":8152556,
			"uri":"shazdeh-v5.bin"
		}
	]
}
