<svg width="25" height="25" viewBox="0 0 25 25" fill="none" xmlns="http://www.w3.org/2000/svg">
<path d="M17.0963 3.11459C16.9753 2.99333 16.8316 2.89713 16.6734 2.83149C16.5152 2.76584 16.3456 2.73206 16.1744 2.73206C16.0031 2.73206 15.8335 2.76584 15.6753 2.83149C15.5171 2.89713 15.3735 2.99333 15.2525 3.11459L6.59626 11.7708C6.49969 11.8672 6.42308 11.9817 6.3708 12.1077C6.31853 12.2337 6.29163 12.3688 6.29163 12.5052C6.29163 12.6416 6.31853 12.7767 6.3708 12.9027C6.42308 13.0288 6.49969 13.1432 6.59626 13.2396L15.2525 21.8958C15.7629 22.4063 16.5858 22.4063 17.0963 21.8958C17.6067 21.3854 17.6067 20.5625 17.0963 20.0521L11.7629 12.5052L17.1067 4.94792C17.6067 4.44792 17.6067 3.61459 17.0963 3.11459Z" fill="#5D2063"/>
</svg>
