<svg width="25" height="25" viewBox="0 0 25 25" fill="none" xmlns="http://www.w3.org/2000/svg">
<path d="M7.90387 21.8854C8.02482 22.0067 8.16851 22.1029 8.3267 22.1685C8.48489 22.2342 8.65447 22.2679 8.82574 22.2679C8.99701 22.2679 9.1666 22.2342 9.32479 22.1685C9.48298 22.1029 9.62667 22.0067 9.74762 21.8854L18.4039 13.2292C18.5004 13.1328 18.577 13.0183 18.6293 12.8923C18.6816 12.7663 18.7085 12.6312 18.7085 12.4948C18.7085 12.3584 18.6816 12.2233 18.6293 12.0973C18.577 11.9712 18.5004 11.8568 18.4039 11.7604L9.74762 3.10416C9.2372 2.59374 8.41428 2.59374 7.90387 3.10416C7.39345 3.61458 7.39345 4.43749 7.90387 4.94791L13.2372 12.4948L7.89345 20.0521C7.39345 20.5521 7.39345 21.3854 7.90387 21.8854Z" fill="#5D2063"/>
</svg>
