<svg width="41" height="41" viewBox="0 0 41 41" fill="none" xmlns="http://www.w3.org/2000/svg">
<rect width="41" height="41" rx="20" fill="white"/>
<rect x="2.5" y="2.5" width="36" height="36" rx="16.5" fill="#F00000" stroke="#BE0000"/>
<ellipse cx="10.4141" cy="9.88105" rx="2.56273" ry="3.5" transform="rotate(42.6227 10.4141 9.88105)" fill="#D9D9D9"/>
<ellipse cx="16.7318" cy="5.68043" rx="1.69161" ry="2.19605" transform="rotate(42.6227 16.7318 5.68043)" fill="#D9D9D9"/>
<path d="M14.7401 12.8985C14.3624 12.5234 13.8517 12.3128 13.3193 12.3128C12.787 12.3128 12.2762 12.5234 11.8985 12.8985C11.5233 13.2775 11.3127 13.7893 11.3127 14.3226C11.3127 14.8559 11.5233 15.3677 11.8985 15.7467L17.6387 21.4849L11.9051 27.2245C11.5299 27.6022 11.3193 28.1129 11.3193 28.6453C11.3193 29.1776 11.5299 29.6884 11.9051 30.066C12.2828 30.4412 12.7935 30.6518 13.3259 30.6518C13.8582 30.6518 14.369 30.4412 14.7466 30.066L20.4823 24.3271L26.2179 30.0595C26.5956 30.4347 27.1063 30.6452 27.6387 30.6452C28.171 30.6452 28.6818 30.4347 29.0595 30.0595C29.4346 29.6818 29.6452 29.1711 29.6452 28.6387C29.6452 28.1063 29.4346 27.5956 29.0595 27.2179L23.3251 21.4836L29.0654 15.7401C29.4405 15.3624 29.6511 14.8517 29.6511 14.3193C29.6511 13.787 29.4405 13.2762 29.0654 12.8985C28.2779 12.1176 26.9982 12.1176 26.2172 12.8985L20.4816 18.6401L14.7401 12.8985Z" fill="white"/>
</svg>
