<svg width="58" height="58" viewBox="0 0 58 58" fill="none" xmlns="http://www.w3.org/2000/svg">
<rect width="58" height="58" rx="26" fill="white"/>
<rect x="2.5" y="2.5" width="53" height="53" rx="24.5" fill="#848DE9" stroke="#575EA2"/>
<ellipse cx="13.0895" cy="18.5027" rx="3.48066" ry="4.75364" transform="rotate(42.6227 13.0895 18.5027)" fill="#D9D9D9"/>
<ellipse cx="2.51075" cy="2.74586" rx="2.51075" ry="2.74586" transform="matrix(0.739512 0.673144 -0.681175 0.73212 19.7407 5.23669)" fill="#D9D9D9"/>
<path d="M42.1101 32.5267C42.4959 32.2281 42.8082 31.8451 43.023 31.4071C43.2379 30.9692 43.3496 30.4878 43.3496 30C43.3496 29.5122 43.2379 29.0308 43.023 28.5928C42.8082 28.1549 42.4959 27.7719 42.1101 27.4733C37.1143 23.6077 31.5358 20.5608 25.5834 18.4467L24.4951 18.06C22.4151 17.3217 20.2168 18.7283 19.9351 20.8767C19.1483 26.9334 19.1483 33.0665 19.9351 39.1233C20.2184 41.2717 22.4151 42.6783 24.4951 41.94L25.5834 41.5533C31.5358 39.4392 37.1143 36.3923 42.1101 32.5267Z" fill="white"/>
</svg>
